<?xml version="1.0" encoding="UTF-8"?>
<svg width="17px" height="15px" viewBox="0 0 17 15" version="1.1" xmlns="http://www.w3.org/2000/svg" xmlns:xlink="http://www.w3.org/1999/xlink">
    <!-- Generator: Sketch 42 (36781) - http://www.bohemiancoding.com/sketch -->
    <title>Rectangle 141</title>
    <desc>Created with Sketch.</desc>
    <defs></defs>
    <g id="Community" stroke="none" stroke-width="1" fill="none" fill-rule="evenodd" opacity="0.5">
        <g id="community_main" transform="translate(-579.000000, -578.000000)" fill="#424951">
            <g id="Lawrence-Cohen-Copy" transform="translate(360.000000, 344.000000)">
                <g id="Group-12" transform="translate(219.000000, 233.000000)">
                    <g id="Group-10">
                        <path d="M5.8429868,5 L6.6379512,1 L9.6379512,1 L8.8429868,5 L15.8423859,5 C16.3922282,5 16.757084,5.44483697 16.6604768,5.97617662 L15.0154501,15.0238234 C14.9174269,15.5629508 14.3931264,16 13.8423859,16 L3.83796341,16 L5.83796341,5 L5.8429868,5 Z M1.66047675,5.97617662 C1.75849993,5.43704916 2.28062374,5 2.83691997,5 L4.83796341,5 L2.83796341,16 L0.836919972,16 C0.285211498,16 -0.0811571393,15.555163 0.0154500689,15.0238234 L1.66047675,5.97617662 Z" id="Rectangle-141"></path>
                    </g>
                </g>
            </g>
        </g>
    </g>
</svg>