<?xml version="1.0" encoding="UTF-8"?>
<svg width="15px" height="16px" viewBox="0 0 15 16" version="1.1" xmlns="http://www.w3.org/2000/svg" xmlns:xlink="http://www.w3.org/1999/xlink">
    <!-- Generator: Sketch 42 (36781) - http://www.bohemiancoding.com/sketch -->
    <title>search icon</title>
    <desc>Created with Sketch.</desc>
    <defs></defs>
    <g id="Symbols" stroke="none" stroke-width="1" fill="none" fill-rule="evenodd">
        <g id="icon/search" fill="#424951">
            <path d="M12.7754027,11.0115329 L14.546416,12.7825462 C14.9364563,13.1725865 14.9342413,13.8071817 14.5481855,14.1932374 L13.5215611,15.2198619 C13.1324981,15.6089249 12.5048833,15.6121057 12.1108698,15.2180923 L10.1572648,13.2644872 C9.21333016,13.7351602 8.1481701,14 7.0209681,14 C3.14339449,14 0,10.8659932 0,7 C0,3.13400675 3.14339449,0 7.0209681,0 C10.8985417,0 14.0419362,3.13400675 14.0419362,7 C14.0419362,8.49229442 13.5735698,9.87552271 12.7754027,11.0115329 Z M7.0209681,12 C9.7939722,12 12.0419362,9.76142375 12.0419362,7 C12.0419362,4.23857625 9.7939722,2 7.0209681,2 C4.24796399,2 2,4.23857625 2,7 C2,9.76142375 4.24796399,12 7.0209681,12 Z" id="search-icon"></path>
        </g>
    </g>
</svg>